# Blender v3.0.1 OBJ File: ''
# www.blender.org
mtllib rock.mtl
o ROCK_Cube.002
v -1.716578 -0.002159 -0.057254
v -1.690459 0.022367 -0.103466
v -1.557499 0.045743 -0.030503
v -1.646573 0.065869 -0.174427
v -1.601982 0.027313 -0.145809
v -1.746606 0.102664 -0.212012
v -1.646511 0.158833 -0.257771
v -1.654741 0.242155 -0.260634
v -1.534608 0.094135 -0.131046
v -1.522399 0.060579 -0.144227
v -1.533678 0.184226 -0.227507
v -1.562773 0.143428 -0.229726
v -1.493448 0.108535 -0.171035
v -1.691270 0.020179 -0.010263
v -1.764466 0.035964 -0.047576
v -1.692731 0.170133 0.014839
v -1.765648 0.105739 -0.082896
v -1.731381 0.117561 -0.001324
v -1.781156 0.191656 -0.111004
v -1.799711 0.239696 -0.180231
v -1.707871 0.312282 -0.203431
v -1.759182 0.248967 -0.222699
v -1.606588 0.275301 -0.222141
v -1.504893 0.217259 -0.205800
v -1.447974 0.169619 -0.205300
v -1.470144 0.041572 -0.155583
v -1.458953 0.012995 -0.121915
v -1.420523 0.086345 -0.124950
v -1.432366 0.045991 -0.116640
v -1.456965 0.140224 -0.135917
v -1.471553 0.245473 -0.131626
v -1.451069 0.196967 -0.084594
v -1.452762 0.201876 -0.215239
v -1.435460 0.170991 -0.091288
v -1.341643 0.094955 -0.102702
v -1.427541 0.224402 -0.073139
v -1.302436 0.157141 -0.087875
v -1.303374 0.109182 -0.065670
v -1.361801 0.237865 -0.067141
v -1.352796 0.200510 -0.076649
v -1.354493 0.182991 -0.040119
v -1.418180 0.325268 -0.119589
v -1.397133 0.254005 -0.038266
v -1.383635 0.151843 0.001957
v -1.351501 0.125249 -0.012832
v -1.338303 0.094860 0.018962
v -1.381735 0.090158 -0.020134
v -1.800328 0.126855 -0.172006
v -1.321779 0.066312 0.078968
v -1.350061 0.168939 0.118872
v -1.366297 0.110812 0.201334
v -1.362986 0.352325 0.068452
v -1.418565 0.348159 0.093672
v -1.421453 0.302746 0.119695
v -1.382567 0.248788 0.093390
v -1.367812 0.196316 0.229599
v -1.406431 0.130410 0.255914
v -1.380839 0.035235 0.182346
v -1.497898 0.281514 0.103031
v -1.482330 0.255275 0.192753
v -1.525491 0.191035 0.238360
v -1.408626 0.185378 0.270822
v -1.385597 0.231380 0.002376
v -1.530098 0.114770 0.181256
v -1.516649 0.083114 0.175592
v -1.576716 0.090814 0.119641
v -1.627174 0.252578 0.188501
v -1.614797 0.172569 0.201007
v -1.535781 0.269156 0.096228
v -1.601322 0.283888 0.102320
v -1.652509 0.223845 0.067127
v -1.625467 0.118406 0.064722
v -1.592030 0.087475 0.070461
v -1.627876 0.155968 0.051241
v -1.687327 0.125753 0.040687
v -1.612897 0.059822 0.043223
v -1.551309 0.044273 0.065183
v -1.531529 0.041838 0.102941
v -1.442122 -0.016093 -0.102292
v -1.492547 -0.008687 -0.099560
v -1.379021 0.056548 -0.014595
v -1.446405 0.021220 -0.006549
v -1.397419 0.007205 -0.060564
v -1.500468 0.007518 -0.019125
v -1.347430 0.030001 0.050723
v -1.409294 0.023597 0.043029
v -1.446067 0.010218 0.045404
v -1.495535 0.043874 0.117137
v -1.510093 0.035362 0.055038
v -1.553303 0.071247 0.000098
v -1.380937 0.077452 -0.064807
v -1.430650 0.048242 0.201749
v -1.518629 0.052631 -0.110884
v -1.559130 0.025658 -0.088071
v -1.399650 0.359865 -0.083043
v -1.382989 0.378328 -0.004435
v -1.355903 0.324861 0.031138
v -1.542496 0.278345 -0.138290
v -1.513121 0.337697 -0.131887
v -1.623337 0.333812 -0.121086
v -1.525289 0.422642 -0.056631
v -1.591344 0.358632 -0.058052
v -1.544023 0.372329 0.035702
v -1.655923 0.319633 -0.060282
v -1.584961 0.325061 -0.013926
v -1.586958 0.331125 0.064959
v -1.688891 0.238747 -0.023769
v -1.365152 0.239573 0.033172
v -1.349780 0.147985 0.062702
v -1.398470 0.402765 0.025935
v -1.652634 0.217180 0.143009
v -1.616689 0.247867 0.022006
v -1.598693 0.267307 -0.002241
v -1.523340 -0.007379 -0.046160
v -1.466741 0.434837 -0.024134
v -1.668488 0.340295 -0.131917
vt 0.433253 0.033194
vt 0.455976 0.078278
vt 0.377409 0.086351
vt 0.482529 0.125000
vt 0.437500 0.130045
vt 0.520222 0.093750
vt 0.548599 0.147932
vt 0.594215 0.148557
vt 0.468836 0.182604
vt 0.431023 0.199531
vt 0.562500 0.223631
vt 0.531889 0.196117
vt 0.483868 0.238206
vt 0.411609 0.000000
vt 0.468750 0.015746
vt 0.531250 0.000000
vt 0.507912 0.031250
vt 0.500000 0.000000
vt 0.562500 0.031790
vt 0.589257 0.062503
vt 0.625000 0.105813
vt 0.593750 0.093750
vt 0.625000 0.158196
vt 0.603485 0.251188
vt 0.531250 0.293372
vt 0.406728 0.253835
vt 0.375000 0.218750
vt 0.434687 0.336248
vt 0.388298 0.318259
vt 0.494875 0.307662
vt 0.616910 0.337563
vt 0.563950 0.373155
vt 0.562500 0.294862
vt 0.520653 0.361853
vt 0.437500 0.395334
vt 0.579456 0.418977
vt 0.468750 0.433569
vt 0.437500 0.437500
vt 0.555611 0.458862
vt 0.520146 0.437500
vt 0.495065 0.468750
vt 0.625000 0.411725
vt 0.588035 0.484419
vt 0.450954 0.524415
vt 0.408021 0.480331
vt 0.378505 0.518649
vt 0.377681 0.450194
vt 0.531393 0.062500
vt 0.379356 0.569323
vt 0.456382 0.598989
vt 0.426528 0.645278
vt 0.589128 0.593750
vt 0.596364 0.633654
vt 0.562888 0.652844
vt 0.524865 0.619153
vt 0.469610 0.656250
vt 0.432274 0.687311
vt 0.373092 0.652305
vt 0.589756 0.700466
vt 0.531250 0.712168
vt 0.483154 0.751121
vt 0.468769 0.687500
vt 0.544993 0.531250
vt 0.429828 0.771358
vt 0.390307 0.768881
vt 0.419509 0.844709
vt 0.534119 0.808255
vt 0.489687 0.812867
vt 0.595348 0.752026
vt 0.593750 0.814439
vt 0.561386 0.879464
vt 0.468750 0.900139
vt 0.420613 0.883723
vt 0.503468 0.901762
vt 0.531250 0.948666
vt 0.491313 0.937500
vt 0.499232 0.975567
vt 0.401363 0.929002
vt 0.375000 0.875000
vt 0.375000 0.824553
vt 0.151836 0.526415
vt 0.187500 0.539036
vt 0.156250 0.567783
vt 0.306220 0.531250
vt 0.252849 0.588049
vt 0.244194 0.532082
vt 0.218750 0.622990
vt 0.337962 0.568084
vt 0.306036 0.593603
vt 0.281821 0.635630
vt 0.318414 0.699382
vt 0.265093 0.684101
vt 0.249790 0.721514
vt 0.189992 0.700174
vt 0.285574 0.725788
vt 0.193259 0.500000
vt 0.271076 0.500000
vt 0.326386 0.500000
vt 0.375000 0.687500
vt 0.195998 0.750000
vt 0.148174 0.676600
vt 0.125000 0.750000
vt 0.125000 0.562500
vt 0.125000 0.623280
vt 0.687500 0.534046
vt 0.635836 0.562500
vt 0.592550 0.560928
vt 0.777369 0.501966
vt 0.815050 0.575170
vt 0.771717 0.580692
vt 0.869885 0.501523
vt 0.809483 0.625000
vt 0.718836 0.621948
vt 0.762704 0.656250
vt 0.687500 0.675034
vt 0.810319 0.692593
vt 0.740117 0.687500
vt 0.691543 0.724977
vt 0.875000 0.686627
vt 0.834681 0.741251
vt 0.398104 0.130652
vt 0.401767 0.187500
vt 0.608128 0.000000
vt 0.395983 0.400378
vt 0.532047 0.562500
vt 0.444716 0.562500
vt 0.375000 0.281250
vt 0.636424 0.594162
vt 0.531250 0.843750
vt 0.426339 0.988400
vt 0.604165 0.881391
vt 0.608127 0.964350
vt 0.562500 1.009296
vt 0.625000 0.817074
vt 0.625000 0.906250
vt 0.468750 1.000000
vt 0.375000 0.968750
vt 0.177339 0.623546
vt 0.687500 0.606362
vt 0.350135 0.744015
vt 0.729383 0.526993
vt 0.870689 0.591804
vt 0.828428 0.656015
vt 0.760243 0.722737
vt 0.875000 0.644187
vt 0.750000 0.750000
vn 0.3207 -0.8997 -0.2962
vn -0.2522 -0.7477 -0.6143
vn 0.0342 -0.6672 -0.7441
vn -0.3823 -0.0694 -0.9214
vn 0.4156 -0.6073 -0.6771
vn -0.1175 0.3257 -0.9381
vn 0.2882 -0.1541 -0.9451
vn -0.0956 -0.9011 -0.4229
vn 0.2241 -0.9215 0.3173
vn -0.4395 -0.6962 0.5676
vn -0.8138 0.5162 0.2670
vn -0.8140 0.0426 0.5793
vn -0.6205 0.6405 -0.4524
vn -0.2728 0.4756 -0.8363
vn 0.3726 0.4198 -0.8276
vn 0.2313 -0.1124 -0.9664
vn -0.3095 -0.3148 -0.8973
vn -0.3896 -0.7620 -0.5173
vn 0.6950 -0.3350 -0.6362
vn 0.4423 0.1182 -0.8891
vn 0.9203 0.3913 0.0028
vn 0.2096 0.3930 -0.8953
vn 0.0570 0.3136 -0.9478
vn 0.7184 -0.3038 -0.6257
vn 0.0360 0.2547 -0.9664
vn 0.6547 0.6693 0.3514
vn 0.6649 0.0596 -0.7445
vn 0.7380 -0.6503 -0.1799
vn 0.0086 0.5439 -0.8391
vn 0.8300 -0.2950 -0.4733
vn 0.6834 0.3438 0.6440
vn 0.6197 0.3614 0.6967
vn 0.6343 -0.4101 -0.6553
vn -0.7499 -0.6182 -0.2355
vn 0.9455 0.1477 0.2903
vn 0.3405 0.4511 0.8250
vn 0.8321 0.5418 0.1186
vn 0.7155 -0.2966 0.6326
vn -0.3130 0.4871 0.8153
vn -0.1752 0.6455 0.7434
vn 0.6874 0.6459 0.3320
vn 0.9653 0.0252 -0.2600
vn -0.3846 -0.5383 0.7499
vn 0.8686 -0.2713 0.4147
vn -0.6532 -0.3933 0.6471
vn -0.3988 0.0811 0.9134
vn 0.2363 0.8884 0.3936
vn -0.7628 0.6467 0.0061
vn -0.6795 -0.6867 0.2582
vn -0.3668 0.4344 0.8226
vn -0.5149 -0.3681 0.7742
vn -0.6868 0.3016 0.6614
vn -0.0229 0.9877 0.1547
vn -0.3994 -0.4725 0.7857
vn -0.5478 -0.6743 0.4953
vn -0.1315 -0.6056 -0.7849
vn 0.4331 -0.6955 0.5733
vn 0.1462 -0.9172 0.3706
vn 0.1069 -0.9937 -0.0324
vn 0.3238 -0.9252 -0.1980
vn 0.3424 -0.9395 0.0086
vn -0.3311 -0.9213 0.2039
vn -0.2810 -0.8896 -0.3601
vn 0.0027 -0.9908 0.1352
vn 0.7279 -0.2609 -0.6341
vn 0.7553 -0.2146 -0.6192
vn 0.9629 -0.2340 -0.1342
vn 0.6343 -0.4102 -0.6553
vn 0.7153 -0.6671 0.2081
vn -0.1792 -0.9658 0.1873
vn -0.0974 -0.9205 -0.3785
vn 0.2368 -0.7621 0.6027
vn -0.3097 -0.2985 -0.9028
vn -0.3733 -0.3196 -0.8709
vn 0.9198 0.2908 -0.2633
vn 0.1161 0.0495 -0.9920
vn 0.4058 0.7787 -0.4786
vn -0.0967 0.6522 -0.7518
vn -0.6949 0.7156 0.0710
vn -0.2948 0.4679 0.8331
vn -0.4342 0.6856 0.5844
vn -0.0163 0.5901 0.8072
vn -0.7156 0.6949 -0.0715
vn -0.7002 0.5106 0.4990
vn -0.5643 -0.5534 -0.6126
vn -0.9496 -0.0139 0.3132
vn 0.0065 -0.9878 0.1554
vn -0.5616 -0.7770 -0.2843
vn -0.6120 -0.0542 -0.7890
vn -0.7066 -0.1118 -0.6987
vn 0.3875 -0.8749 -0.2906
vn -0.0918 -0.8227 -0.5611
vn -0.3454 -0.0979 -0.9333
vn 0.3980 -0.2037 -0.8945
vn 0.3065 0.0992 -0.9467
vn -0.0165 -0.8964 -0.4430
vn 0.9435 0.3277 -0.0500
vn -0.7011 0.0249 -0.7127
vn -0.9174 0.1673 0.3611
vn -0.7223 0.4623 0.5144
vn 0.1135 0.6782 -0.7260
vn 0.2963 -0.6255 -0.7218
vn -0.5652 -0.8146 -0.1303
vn 0.1857 0.8878 -0.4212
vn 0.7164 0.3633 -0.5957
vn 0.8729 -0.4795 -0.0900
vn 0.3767 -0.9172 0.1296
vn 0.1761 -0.9504 -0.2564
vn 0.0463 0.2040 -0.9779
vn 0.1037 0.3062 -0.9463
vn 0.7355 0.2990 0.6080
vn 0.0540 0.3086 -0.9497
vn 0.5112 -0.5736 0.6400
vn 0.6836 -0.3499 -0.6405
vn 0.9701 0.1982 0.1401
vn -0.1111 0.8034 -0.5850
vn 0.2002 -0.2612 -0.9443
vn 0.8601 0.0003 -0.5102
vn 0.5673 0.4234 0.7063
vn 0.7626 -0.3374 -0.5519
vn 0.6682 -0.4428 -0.5979
vn 0.7719 0.4951 -0.3988
vn 0.9466 0.3021 -0.1126
vn 0.8411 -0.1039 -0.5308
vn 0.9547 0.2892 0.0702
vn 0.9543 -0.1058 0.2795
vn 0.7436 -0.1784 0.6444
vn 0.6235 0.0697 0.7787
vn 0.9852 -0.0378 0.1673
vn 0.9192 0.3904 0.0508
vn 0.2126 0.7804 0.5880
vn 0.8773 0.4746 -0.0715
vn -0.3173 0.8940 0.3165
vn -0.2700 -0.2621 0.9265
vn 0.9154 -0.1800 -0.3600
vn -0.4280 -0.3884 0.8160
vn 0.2417 0.7192 0.6515
vn -0.3452 0.8830 0.3181
vn -0.5635 -0.6997 0.4393
vn 0.1618 -0.5759 0.8013
vn -0.2104 -0.5778 0.7886
vn -0.8831 -0.4638 0.0711
vn -0.8540 -0.0512 0.5178
vn -0.8382 0.5433 0.0463
vn -0.9954 -0.0314 0.0904
vn -0.4081 -0.3653 0.8367
vn -0.6940 0.6971 -0.1799
vn -0.2308 -0.5888 0.7746
vn -0.5396 0.7693 0.3421
vn -0.3137 0.3029 0.8999
vn -0.6215 -0.3216 0.7144
vn -0.8137 0.0452 0.5795
vn -0.6690 -0.6896 0.2772
vn -0.0347 0.5939 0.8038
vn 0.2020 0.5690 0.7971
vn -0.9472 0.3184 0.0384
vn -0.3624 0.8398 0.4043
vn -0.4831 -0.2753 0.8312
vn 0.3260 -0.9226 0.2061
vn 0.1482 -0.9192 0.3649
vn 0.3565 -0.7926 -0.4946
vn -0.1483 -0.9870 -0.0613
vn -0.5659 -0.7304 0.3825
vn 0.2842 -0.9376 -0.2004
vn 0.0949 -0.9935 0.0636
vn 0.5810 0.7552 -0.3036
vn -0.3096 -0.9027 0.2987
vn -0.8328 -0.3638 0.4174
vn -0.2291 -0.9324 0.2795
vn -0.2012 -0.9786 0.0423
vn 0.4972 -0.2688 -0.8249
vn 0.9968 0.0797 -0.0049
vn 0.9004 0.0010 -0.4351
vn 0.8677 -0.3117 -0.3872
vn -0.4448 -0.8097 0.3829
vn -0.1540 -0.8452 0.5117
vn -0.7890 -0.5728 0.2222
vn -0.4777 -0.8408 -0.2548
vn 0.1809 0.6668 -0.7230
vn 0.1358 0.0584 -0.9890
vn 0.1949 0.6853 -0.7017
vn 0.3847 0.8250 -0.4139
vn -0.1018 0.1564 -0.9824
vn -0.1206 0.7754 0.6198
vn -0.5560 0.7721 0.3079
vn 0.9152 -0.1383 -0.3785
vn 0.2328 0.8588 -0.4563
vn -0.8584 0.3408 0.3835
vn -0.4979 0.8061 0.3198
vn -0.9739 0.2231 -0.0418
vn -0.5390 0.2883 0.7914
vn -0.6409 0.7426 0.1944
vn 0.5009 0.7620 -0.4105
vn 0.2279 0.8575 -0.4614
vn -0.3476 0.4998 0.7933
vn -0.8519 0.4459 -0.2747
vn -0.2526 0.2615 0.9316
usemtl COLOR_ROCK
s off
f 1/1/1 2/2/1 3/3/1
f 2/2/2 4/4/2 5/5/2
f 6/6/3 7/7/3 4/4/3
f 6/6/4 8/8/4 7/7/4
f 4/4/5 7/7/5 9/9/5
f 9/9/6 10/10/6 5/5/6
f 7/7/7 11/11/7 12/12/7
f 12/12/8 13/13/8 9/9/8
f 14/14/9 1/1/9 3/3/9
f 15/15/10 1/1/10 14/14/10
f 16/16/11 17/17/11 18/18/11
f 19/19/12 17/17/12 16/16/12
f 20/20/13 21/21/13 22/22/13
f 21/21/14 8/8/14 22/22/14
f 23/23/15 24/24/15 8/8/15
f 12/12/16 11/11/16 25/25/16
f 13/13/17 26/26/17 10/10/17
f 10/10/18 26/26/18 27/27/18
f 26/26/19 28/28/19 29/29/19
f 26/26/20 30/30/20 28/28/20
f 31/31/21 32/32/21 33/33/21
f 28/28/22 34/34/22 35/35/22
f 34/34/23 36/36/23 37/37/23
f 37/37/24 38/38/24 35/35/24
f 36/36/25 39/39/25 40/40/25
f 40/40/26 41/41/26 37/37/26
f 13/13/27 30/30/27 26/26/27
f 13/13/28 25/25/28 30/30/28
f 24/24/29 33/33/29 11/11/29
f 42/42/30 43/43/30 36/36/30
f 39/39/31 43/43/31 44/44/31
f 41/41/32 44/44/32 45/45/32
f 45/45/33 46/46/33 47/47/33
f 2/2/34 15/15/34 17/17/34 48/48/34
f 49/49/35 50/50/35 51/51/35
f 52/52/36 53/53/36 54/54/36
f 55/55/37 54/54/37 56/56/37
f 51/51/38 57/57/38 58/58/38
f 53/53/39 59/59/39 54/54/39
f 60/60/40 61/61/40 62/62/40
f 45/45/41 44/44/41 46/46/41
f 43/43/42 63/63/42 44/44/42
f 57/57/43 61/61/43 64/64/43
f 49/49/44 51/51/44 58/58/44
f 65/65/45 64/64/45 66/66/45
f 67/67/46 68/68/46 61/61/46
f 69/69/47 70/70/47 67/67/47
f 70/70/48 71/71/48 67/67/48
f 66/66/49 72/72/49 73/73/49
f 74/74/50 16/75/50 75/76/50
f 71/71/51 16/75/51 74/74/51
f 75/76/52 16/75/52 18/77/52
f 60/60/53 69/69/53 67/67/53
f 73/73/54 76/78/54 77/79/54
f 65/65/55 66/66/55 78/80/55
f 27/81/56 79/82/56 80/83/56
f 81/84/57 82/85/57 83/86/57
f 82/85/58 84/87/58 83/86/58
f 85/88/59 86/89/59 82/85/59
f 86/89/60 87/90/60 82/85/60
f 58/58/61 87/90/61 86/89/61
f 87/90/62 88/91/62 89/92/62
f 89/92/63 77/93/63 90/94/63
f 89/92/64 88/91/64 78/95/64
f 29/96/65 83/86/65 79/82/65
f 91/97/66 83/86/66 29/96/66
f 91/97/67 81/84/67 83/86/67
f 46/46/68 85/88/68 47/98/68
f 49/49/69 58/58/69 85/88/69
f 58/58/70 92/99/70 88/91/70
f 77/93/71 76/100/71 90/94/71
f 3/101/72 90/94/72 14/102/72
f 93/103/73 80/83/73 94/104/73
f 27/81/74 80/83/74 93/103/74
f 95/105/75 96/106/75 97/107/75
f 31/108/76 98/109/76 99/110/76
f 24/111/77 98/109/77 31/108/77
f 99/110/78 100/112/78 101/113/78
f 100/112/79 102/114/79 101/113/79
f 53/53/80 103/115/80 59/59/80
f 102/114/81 104/116/81 105/117/81
f 103/115/82 106/118/82 59/59/82
f 105/117/83 106/118/83 103/115/83
f 104/116/84 20/119/84 107/120/84
f 1/1/85 15/15/85 2/2/85
f 48/48/86 17/17/86 19/19/86 20/20/86
f 94/121/87 3/3/87 2/2/87 5/5/87
f 2/2/88 48/48/88 6/6/88
f 48/48/89 20/20/89 6/6/89
f 20/20/90 22/22/90 6/6/90
f 10/10/91 93/122/91 94/121/91 5/5/91
f 2/2/92 6/6/92 4/4/92
f 6/6/93 22/22/93 8/8/93
f 4/4/94 9/9/94 5/5/94
f 24/24/95 11/11/95 7/7/95 8/8/95
f 9/9/96 7/7/96 12/12/96
f 34/34/97 25/25/97 33/33/97 32/32/97
f 10/10/98 9/9/98 13/13/98
f 15/15/99 18/18/99 17/17/99
f 19/19/100 107/123/100 20/20/100
f 21/21/101 23/23/101 8/8/101
f 13/13/102 12/12/102 25/25/102
f 93/122/103 10/10/103 27/27/103
f 24/24/104 31/31/104 33/33/104
f 28/28/105 30/30/105 34/34/105
f 30/30/106 25/25/106 34/34/106
f 47/47/107 91/124/107 35/35/107 38/38/107
f 28/28/108 35/35/108 91/124/108
f 35/35/109 34/34/109 37/37/109
f 34/34/110 32/32/110 36/36/110
f 45/45/111 38/38/111 37/37/111 41/41/111
f 37/37/112 36/36/112 40/40/112
f 47/47/113 38/38/113 45/45/113
f 36/36/114 32/32/114 31/31/114 42/42/114
f 40/40/115 39/39/115 41/41/115
f 39/39/116 36/36/116 43/43/116
f 11/11/117 33/33/117 25/25/117
f 108/125/118 109/126/118 44/44/118 63/63/118
f 41/41/119 39/39/119 44/44/119
f 29/29/120 28/28/120 91/124/120
f 27/127/121 26/26/121 29/29/121
f 46/46/122 44/44/122 109/126/122
f 50/50/123 49/49/123 46/46/123 109/126/123
f 63/63/124 97/107/124 108/125/124
f 55/55/125 50/50/125 109/126/125 108/125/125
f 55/55/126 108/125/126 97/107/126 52/52/126
f 57/57/127 51/51/127 56/56/127 62/62/127
f 52/52/128 54/54/128 55/55/128
f 50/50/129 56/56/129 51/51/129
f 50/50/130 55/55/130 56/56/130
f 62/62/131 56/56/131 54/54/131 60/60/131
f 52/52/132 97/107/132 96/106/132 110/128/132
f 54/54/133 59/59/133 60/60/133
f 57/57/134 62/62/134 61/61/134
f 43/43/135 97/107/135 63/63/135
f 64/64/136 65/65/136 92/99/136 57/57/136
f 52/52/137 110/128/137 53/53/137
f 60/60/138 59/59/138 69/69/138
f 72/72/139 66/66/139 64/64/139 68/68/139
f 58/58/140 57/57/140 92/99/140
f 64/64/141 61/61/141 68/68/141
f 71/71/142 74/74/142 68/68/142 111/129/142
f 68/68/143 67/67/143 111/129/143
f 67/67/144 71/71/144 111/129/144
f 68/68/145 74/74/145 72/72/145
f 14/130/146 73/73/146 72/72/146 75/76/146
f 70/70/147 112/131/147 71/71/147
f 73/73/148 14/130/148 76/78/148
f 107/132/149 19/133/149 71/71/149 112/131/149
f 72/72/150 74/74/150 75/76/150
f 75/76/151 18/77/151 14/130/151
f 71/71/152 19/133/152 16/75/152
f 73/73/153 77/79/153 78/80/153 66/66/153
f 60/60/154 67/67/154 61/61/154
f 69/69/155 106/134/155 70/70/155
f 70/70/156 106/134/156 112/131/156
f 112/131/157 113/135/157 107/132/157
f 18/77/158 15/136/158 14/130/158
f 76/78/159 14/130/159 90/137/159
f 114/138/160 79/82/160 83/86/160 84/87/160
f 81/84/161 85/88/161 82/85/161
f 80/83/162 79/82/162 114/138/162
f 3/101/163 114/138/163 84/87/163 89/92/163
f 82/85/164 87/90/164 84/87/164
f 86/89/165 85/88/165 58/58/165
f 110/128/166 96/106/166 95/105/166 115/139/166
f 84/87/167 87/90/167 89/92/167
f 3/101/168 89/92/168 90/94/168
f 87/90/169 58/58/169 88/91/169
f 89/92/170 78/95/170 77/93/170
f 29/96/171 79/82/171 27/81/171
f 91/97/172 47/98/172 81/84/172
f 47/98/173 85/88/173 81/84/173
f 46/46/174 49/49/174 85/88/174
f 88/91/175 92/99/175 65/65/175
f 88/91/176 65/140/176 78/95/176
f 94/104/177 114/138/177 3/101/177
f 94/104/178 80/83/178 114/138/178
f 95/105/179 42/141/179 99/110/179
f 42/141/180 31/108/180 99/110/180
f 101/113/181 115/139/181 95/105/181 99/110/181
f 100/112/182 98/109/182 23/142/182 116/143/182
f 99/110/183 98/109/183 100/112/183
f 103/115/184 53/53/184 110/128/184 115/139/184
f 103/115/185 115/139/185 101/113/185 102/114/185
f 97/107/186 43/43/186 42/141/186 95/105/186
f 100/112/187 116/143/187 102/114/187
f 102/114/188 105/117/188 103/115/188
f 102/114/189 116/143/189 104/116/189
f 105/117/190 113/144/190 106/118/190
f 105/117/191 104/116/191 113/144/191
f 20/119/192 104/116/192 116/143/192 21/145/192
f 24/111/193 23/142/193 98/109/193
f 23/142/194 21/145/194 116/143/194
f 113/144/195 104/116/195 107/120/195
f 106/118/196 113/144/196 112/146/196
f 59/59/197 106/118/197 69/69/197
